<svg version="1.2" xmlns="http://www.w3.org/2000/svg" viewBox="0 0 395 395" width="120" height="120">
	<title>logo-no-background-svg</title>
	<style>
		.s0 { fill: #139413 } 
	</style>
	<g id="Layer">
		<g id="Layer">
			<g id="tight-bounds">
				<g id="Layer">
					<g id="Layer">
						<g id="Layer">
							<g id="Layer">
								<g id="Layer">
									<g id="textblocktransform">
										<g id="textblock">
											<g id="Layer">
												<g id="Layer">
													<g id="Layer">
														<g id="Layer">
															<g id="text-0">
															</g>
														</g>
													</g>
												</g>
											</g>
										</g>
									</g>
								</g>
							</g>
							<g id="Layer">
								<g id="Layer">
									<g id="Layer">
										<g id="icon-0">
											<g id="Layer">
												<path id="Layer" class="s0" d="m43.3 349.6c0 0 11.4-3 17.8-13.6 6.4-10.6 38.8-57.9 42.5-63.1 8.2-3.4 63.4-26.6 86.9-48.8-19.9 0.2-46.9-5.9-57.9-17.8 13.8-4 62.3 2.9 81.9-5.2 0 0 7.9-5.6 23.2-26.1-18.4 8.4-65.2 11-76.7-6.7 14-1.6 28-3.3 46.1-4.8 9-0.8 38.5-4.4 43.8-6.2 6.6-9.2 14.9-21.3 14.9-21.3 0 0-51.8 6.2-63.3-11.4 20.6-0.5 69.4-6.8 75-11.9 5.7-5.2 31.3-36.5 96.8-48.3 6.1-1.1-41.5-5.1-81.6 8.4-40.1 13.5-44 12.5-69.5 27.4-25.5 14.9-45.3 27.1-59.3 40.5-13.9 13.3-34.9 35.2-44.1 53.4-9.3 18.3-18.1 43.2-22.5 66.9-11.6 28.7-54 88.6-54 88.6z"/>
											</g>
										</g>
									</g>
								</g>
							</g>
							<g id="Layer">
							</g>
						</g>
					</g>
				</g>
			</g>
		</g>
	</g>
</svg>